<?xml version="1.0" standalone="no"?>
<svg viewBox="-350 -150 1500 1500" style="width: 487.5px; height: 487.5px; justify-content: center; align-self: center; transform: scale(1, 1);" xmlns="http://www.w3.org/2000/svg"><g transform="rotate(0 408.51788902282715 605.8098602294922)"><g transform="translate(0 459)"><path d="M778.244 749.543C797.57 748.61 789.797 714.805 788.41 702.39C773.109 657.046 776.706 607.574 770.688 560.046C766.939 515.678 762.122 471.448 758.07 427.114C750.112 337.12 692.965 153.916 627.75 124.453C619.535 88.4068 585.604 54.7586 542.674 54.7586C513.394 20.0996 478.151 -4.29271 432.948 0.63229C414.268 1.48229 396.152 21.2943 378.253 25.1203C368.231 26.5023 279.291 22.9453 261.475 33.5263C249.065 39.8983 237.862 51.6733 241.511 66.6643C247.333 84.8263 229.24 65.1743 191.497 84.5593C114.534 130.782 160.524 192.619 162.562 194.535C114.534 261.358 72.5551 315.57 53.1321 397.247C40.5441 457.886 41.9611 520.485 31.4141 581.435C27.6901 602.569 21.9771 622.98 15.7951 643.503C9.09505 670.362 5.83721 737.306 2.14421 737.904C-4.58279 739.575 6.03205 753.387 13.1601 753.398C210.784 786.179 411.522 754.756 610.208 749.622C666.201 747.675 722.254 747.226 778.244 749.543Z" transform="translate(12.50415 -33.85719)" fill="#FFFFFF" stroke="none"></path><path d="M307.855 2.4589L307.101 2.58547C295.271 4.59142 282.709 7.69826 272.682 14.5299C263.284 20.9319 258.076 29.7199 253.737 39.9729L253.581 40.3424C250.197 48.3883 246.334 59.0025 237.322 61.9649C233.114 63.3473 228.493 63.2797 223.988 63.2138C222.432 63.191 220.89 63.1684 219.383 63.2059C213.199 63.3589 206.996 64.1349 201.161 66.2609C178.491 74.5199 162.849 94.8779 156.822 117.79C153.086 131.993 152.635 147.159 154.503 161.686C155.301 167.896 157.897 174.697 163.471 178.174C165.293 179.31 167.277 179.934 169.209 180.018C147.699 202.008 128.456 226.143 110.935 251.506C96.5071 272.393 82.7451 293.942 71.7051 316.836C59.5801 341.981 51.5401 368.321 47.2671 395.897C42.9381 423.83 41.5171 452.06 39.1441 480.196C36.8581 507.315 32.6171 533.833 26.2981 560.305C19.1281 590.339 10.5571 620.108 5.00309 650.506C2.17909 665.96 0.172089 681.582 0.016089 697.307C-0.138911 712.796 0.758089 729.109 5.69609 743.866C7.28009 748.6 11.6581 751.851 16.7541 751.086C21.1851 750.419 26.1371 746.219 25.4921 741.187C23.8091 728.052 21.7231 715.071 21.5031 701.796C21.2841 688.598 22.2531 675.327 23.8641 662.235C26.8818 637.726 32.9411 613.781 38.8117 589.837L40.3591 583.498C46.8471 556.762 52.5511 529.976 55.4461 502.585C58.2691 475.878 59.1211 449.011 61.6471 422.279C64.1921 395.354 68.8771 368.681 78.5101 343.316C87.265 320.265 99.6124 298.732 112.669 277.871L114.414 275.094C137.391 238.648 163.693 204.228 194.565 174.086C211.398 157.65 229.53 142.316 248.664 128.625C258.603 121.513 268.698 114.628 279.099 108.206C286.55 103.605 294.185 99.3049 301.704 94.8199C305.695 97.1379 309.428 100.968 312.048 103.425L314.626 105.867C319.76 110.774 324.767 115.803 329.893 120.717C341.723 132.058 353.196 143.739 365.359 154.735C377.005 165.263 389.507 175.16 403.066 183.12C410.05 187.219 417.373 190.714 424.932 193.622C431.202 196.034 441.728 199.775 446.99 193.984C450.11 191.806 451.223 187.676 448.559 184.44C445.562 177.677 435.143 176.09 428.744 173.569C421.283 170.632 414.17 166.683 407.398 162.414C394.461 154.257 382.785 144.378 371.398 134.211L369.046 132.104C356.11 120.481 343.349 108.636 328.851 98.9469C323.804 95.5729 317.429 91.2979 310.936 89.1229L312.398 88.1889C312.916 87.8509 312.6 86.9759 311.965 87.1609C310.689 87.5319 309.418 87.9229 308.148 88.3269C302.196 86.9439 296.292 87.6819 291.363 92.8679C290.954 93.2979 291.469 93.9479 291.987 93.6769C293.17 93.0619 294.393 92.8159 295.633 92.8419C279.984 99.1169 264.872 107.417 250.545 115.795C231.773 126.771 213.948 139.544 197.399 153.637C190.76 159.292 184.328 165.158 178.076 171.198C177.287 169.175 174.973 167.855 172.442 168.206C171.303 168.364 169.069 161.781 168.827 159.974C168.069 154.323 168.098 148.412 168.301 142.723C168.697 131.549 170.696 120.093 175.383 109.875C183.123 92.9999 198.68 79.2099 217.708 77.6809C228.515 76.8139 239.85 77.5959 249.275 71.2129C256.552 66.284 260.754 58.8084 264.073 50.9261L264.511 49.8729C267.783 41.8919 271.186 33.2229 278.02 27.6029C285.17 21.7238 294.466 19.0659 303.368 16.8945L305.898 16.2849C330.616 10.3786 355.677 10.9613 380.816 11.9458L388.757 12.2629C388.986 12.2729 389.079 11.9339 388.875 11.8269C364.204 -1.1861 334.85 -2.0251 307.855 2.4589ZM399.76 23.7801C393.622 22.0941 387.33 25.8471 385.547 31.8501C383.705 38.0461 383.895 45.1551 383.236 51.5901C382.919 54.6995 383.123 57.8131 383.326 60.9192C383.469 63.1015 383.612 65.2802 383.574 67.4511C380.231 63.8771 376.848 60.3481 373.332 57.0011C372.428 56.1401 371.274 57.2191 371.713 58.2501C378.911 75.1751 390.454 90.9031 402.132 104.969C414.137 119.43 427.664 132.611 441.883 144.887C448.857 150.908 456.055 156.664 463.401 162.225L464.174 162.807C471.923 168.606 480.161 173.64 490.284 172.117C498.934 170.815 505.966 165.543 512.443 159.977L513.703 158.885C520.913 152.598 527.838 145.97 534.422 139.03C547.676 125.061 559.6 109.662 570.06 93.5021C570.181 93.315 570.303 93.1276 570.425 92.9399C572.897 89.1386 575.456 85.2033 574.127 80.4281C573.486 78.1261 572.12 76.5591 570.401 75.6991C569.992 75.1811 569.517 74.6791 568.957 74.2041L568.857 74.1151C568.433 72.9601 568.02 71.8031 567.621 70.6401C566.966 68.8191 566.296 67.0081 565.594 65.2041C564.086 61.3261 562.598 57.4381 560.975 53.6061C559.425 49.9461 557.893 46.2731 556.293 42.6341L556.156 42.3193C554.841 39.2874 553.892 36.5844 550.811 34.9701C550.644 34.8831 550.373 34.8781 550.242 35.0431C548.077 37.7878 548.14 40.9699 548.207 44.2948C548.209 44.4248 548.212 44.5549 548.214 44.6853L548.229 45.7651C548.258 51.1201 548.274 56.4721 548.483 61.8231C548.54 63.2807 548.538 64.9084 548.537 66.6317C548.532 73.9061 548.525 82.884 552.868 87.9571C550.542 91.4671 548.153 94.9361 545.686 98.3471C534.575 113.699 521.866 127.977 508.141 141.036L507.851 141.313C502.313 146.641 495.031 155.2 486.971 155.94C483.654 156.245 480.591 154.478 477.845 152.68L476.353 151.691C472.351 149.039 468.458 146.207 464.595 143.359C447.626 130.843 432.234 116.708 417.082 102.093C411.929 97.1238 406.918 92.0036 401.937 86.8559L395.543 80.2321C393.683 78.3061 391.843 76.3463 390.009 74.3746L386.343 70.4221C389.67 65.1641 394.434 60.9491 397.7 55.5961C401.236 49.8031 405.43 44.3681 407.83 37.9941C410.029 32.1531 405.385 25.3261 399.76 23.7801ZM563.599 43.1334C571.711 40.3194 581.853 42.8734 589.786 45.3314C598.624 48.0714 606.791 53.1174 613.793 59.1104C621.18 65.4304 627.285 73.2344 631.598 81.9524L632.01 82.7923C635.949 90.8792 640.436 101.981 638.45 110.865C638.393 111.117 638.328 111.36 638.254 111.595C654.349 119.518 669.213 129.442 682.157 142.02C697.229 156.665 709.991 173.33 720.791 191.334C763.684 262.842 771.234 348.722 776.3 430.271L777.563 450.948C780.314 495.597 783.533 540.14 791.896 584.172L792.506 587.351C794.379 597.012 796.421 606.688 798.468 616.383C806.188 652.959 813.968 689.819 812.944 727.202C812.555 741.372 791.613 741.276 791.006 727.202C788.72 674.229 776.358 623.083 767.987 570.938C753.258 479.197 760.638 384.617 739.768 293.795C731.578 258.153 718.891 223.58 700.774 191.765C691.825 176.048 681.586 160.861 669.592 147.302C659.273 135.635 648.548 124.407 636.489 114.599C632.635 118.459 624.936 116.492 622.924 110.865C621.542 106.998 621.945 102.477 621.058 98.4264C620.235 94.6674 619.1 90.9404 617.588 87.4004C614.574 80.3454 610.15 73.5704 605.043 67.8604C599.526 61.6884 593.185 56.5604 586.09 52.3264C578.946 48.0634 571.133 46.7904 563.599 43.6754C563.345 43.5704 563.321 43.2304 563.599 43.1334ZM490.625 187.576C490.531 186.673 489.311 186.671 489.219 187.576C487.291 206.218 485.146 224.758 483.806 243.456C482.496 261.739 481.319 280.017 480.773 298.338C479.675 335.252 479.661 372.181 478.995 409.1C478.268 449.36 477.938 489.613 478.327 529.858L473.318 530.22C444.972 532.364 416.602 534.242 388.23 536.072L356.312 538.123C355.902 538.149 355.743 538.545 355.847 538.838C355.408 538.976 355.025 539.287 354.926 539.741C353.481 546.311 353.493 553.189 352.142 559.83C350.721 566.828 348.661 573.77 346.147 580.452C341.126 593.8 333.966 606.494 325.588 618.01C317.207 629.53 307.297 640.17 296.502 649.464C290.801 654.372 285.214 659.169 281.403 665.786C277.683 672.246 275.799 679.485 274.075 686.677L263.584 730.777C263.384 731.62 263.163 732.475 262.94 733.339C261.672 738.249 260.332 743.441 262.254 748.233C265.149 755.453 273.299 758.382 279.451 752.774C286.045 746.764 286.557 734.615 288.361 726.285L294.039 700.059L294.209 699.262C295.661 692.334 296.682 684.792 299.625 678.344C302.506 672.029 307.889 667.048 312.581 662.09L313.231 661.401C333.123 640.231 350.589 614.626 357.36 586.038C359.25 578.058 360.355 569.952 360.434 561.746C360.503 554.591 360.234 546.083 357.41 539.416C357.367 539.314 357.303 539.237 357.238 539.16C396.265 539.526 435.282 539.356 474.309 539.186C475.683 539.181 477.057 539.162 478.432 539.153C478.808 569.316 479.598 599.475 480.956 629.626C482.828 671.211 484.716 712.829 487.578 754.358C487.785 757.371 492.056 757.377 492.265 754.358C494.806 717.481 496.595 680.523 498.258 643.597L498.873 629.942C500.232 599.599 501.489 569.26 501.594 538.884C511.992 538.707 522.389 538.47 532.791 538.178C542.703 537.9 552.611 537.537 562.52 537.152C567.144 536.974 571.768 536.791 576.392 536.604C581.293 536.407 585.626 536.566 588.447 532.015C589.67 530.042 589.012 527.882 587.7 526.22C584.88 522.646 580.543 523.022 576.401 523.381C575.73 523.44 575.064 523.497 574.411 523.538L567.475 523.963L550.628 524.985C544.021 525.388 537.414 525.797 530.808 526.224C521.071 526.852 511.339 527.501 501.608 528.175C501.468 456.22 501.138 384.245 499.478 312.308C499.002 291.653 498.014 271.049 496.537 250.44C495.352 233.913 493.718 217.495 492.02 201.045L490.625 187.576ZM699.227 238.384C699.29 237.426 700.706 237.411 700.727 238.384C700.906 246.624 701.078 254.864 701.249 263.105C702.625 329.507 701.777 396.066 708.439 462.24C711.581 493.441 717.367 524.183 724.062 554.797C727.488 570.462 731.082 586.09 734.497 601.757C737.825 617.026 741.394 632.369 744.034 647.78C746.628 662.926 748.952 678.189 749.995 693.53L750.123 695.532C750.208 696.94 750.354 698.474 750.507 700.08C751.161 706.949 751.94 715.141 748.623 720.48C744.189 727.616 735.7 727.744 730.949 720.932C727.651 716.204 727.398 708.755 727.171 702.109C727.091 699.765 727.015 697.521 726.809 695.532C726.008 687.759 725.161 679.98 724.199 672.225C722.322 657.098 719.849 642.005 717.277 626.981C711.92 595.693 704.15 564.799 698.415 533.561C692.537 501.552 688.359 469.314 688.183 436.724C688.064 414.378 689.634 392.061 691.204 369.756C691.942 359.255 692.681 348.757 693.243 338.259C695.027 304.951 697.055 271.668 699.227 238.384ZM189.527 401.641C189.187 399.591 191.766 398.321 192.955 400.196C206.546 421.618 213.099 444.887 215.861 469.956C218.301 492.081 217.582 514.525 216.367 536.708C215.071 560.368 213.559 584.022 212.03 607.669L209.681 643.932L203.786 734.841C203.364 741.344 201.888 747.257 196.289 750.28C195.58 750.872 194.841 751.403 193.98 751.863C190.955 753.48 186.943 752.663 185.194 749.559L185.895 750.02C186.506 750.405 185.82 749.868 183.837 748.411L182.154 746.233C180.931 744.395 180.15 742.588 179.836 740.403C179.474 737.887 179.728 735.191 179.974 732.575C180.06 731.66 180.145 730.756 180.202 729.872L184.066 670.26C187.071 623.917 190.58 577.587 193.225 531.22C194.457 509.61 195.32 487.979 194.736 466.331C194.154 444.803 193.057 422.91 189.527 401.641ZM595.836 533.129C595.566 532.88 595.127 533.056 595.115 533.428C594.93 539.644 598.101 546.787 600.836 552.947C601.431 554.287 602.005 555.58 602.519 556.806L603.013 557.98C605.993 565.024 609.245 572.075 613.303 578.555C618.047 586.131 623.312 593.39 629.149 600.16C634.652 606.543 640.847 612.076 646.809 618.003C652.727 623.887 656.334 630.017 658.227 638.139C660.374 647.362 661.316 656.935 662.476 666.321L662.977 670.446C663.961 678.696 664.84 686.959 665.615 695.232C665.819 697.406 665.914 699.759 666.013 702.192C666.37 710.955 666.768 720.741 672.412 726.828C676.609 731.355 683.668 729.7 686.773 724.979C689.673 720.566 689.548 715.442 689.085 710.392L688.926 708.757C688.406 703.598 687.77 698.447 687.132 693.301C685.82 682.722 684.365 672.158 682.741 661.622L682.449 659.702C679.786 641.949 677.747 623.041 665.125 609.265C659.076 602.663 651.615 597.344 644.957 591.381C638.812 585.879 632.888 580.042 627.33 573.948C621.354 567.395 615.425 560.707 610.099 553.611C607.441 550.069 604.906 546.433 602.492 542.721C600.399 539.502 598.68 535.746 595.836 533.129Z" transform="translate(2.000311 -20.99981)" fill="#000000" fill-rule="evenodd" stroke="none"></path></g><g transform="translate(225 0)"><g><g><path d="M333.415 93.2216C329.554 69.8624 342.226 65.0158 333.415 42.8109C313.833 1.66731 260.468 3.44007 221.308 0.276637C177.63 -1.39736 133.422 4.36885 93.1557 21.875C83.5377 26.056 74.2867 30.9732 65.4187 36.5599C57.7507 41.3913 58.8047 50.5773 63.6397 55.5884C28.7747 104.96 48.7157 171.232 20.8967 223.202C15.7577 232.491 8.96066 240.821 4.49366 250.487C-2.29634 265.18 -2.73134 286.233 12.6667 295.99C34.3537 307.631 46.4557 284.584 57.1117 317.993C110.33 434.483 217.329 441.044 318.905 380.31C327.693 375.422 336.662 369.897 343.298 362.217C358.361 345.266 356.587 321.428 356.92 300.259C357.106 287.854 357.137 275.447 357.016 263.039C356.542 212.781 339.885 143.065 333.415 93.2216Z" transform="translate(52 80)" fill="#FFFFFF" stroke="none"></path><path d="M328.858 2.05735C261.958 -4.86265 192.397 5.68736 131.067 33.5074C98.6176 48.2274 68.8166 68.4874 42.6976 92.7374C37.9276 91.3974 32.7076 91.1174 28.3676 91.8674C21.2676 93.0974 14.7676 97.1574 10.5076 102.957C4.02762 111.757 4.25762 122.977 9.17762 131.897C8.39662 132.526 7.67762 133.247 7.01762 134.026C1.82762 140.217 2.36762 148.207 6.17762 154.977C7.24342 156.875 9.16081 158.976 11.1901 161.199C15.3299 165.734 19.9355 170.779 18.7276 175.657C17.9176 178.967 14.9776 182.067 13.2676 184.977C11.1376 188.597 9.33762 192.377 7.73762 196.257C-4.71818 226.333 -0.00202393 258.647 7.02466 289.34L7.65708 292.088C9.04719 298.235 10.3267 305.444 12.6176 312.087C-4.37238 335.487 -0.292376 375.167 27.4976 388.417C34.3276 391.677 41.9276 393.517 49.5176 393.267C53.4776 393.127 57.6076 392.587 61.3576 391.287C63.2276 390.637 65.0776 389.807 66.5276 388.477C70.0076 406.887 77.9576 423.847 87.9476 439.797C93.5776 448.767 100.108 457.727 107.668 465.177C115.658 473.037 129.448 480.717 139.189 471.047C142.508 467.757 141.439 462.647 137.788 460.207C130.948 455.607 123.708 452.787 117.668 446.937C110.948 440.427 104.588 433.397 98.5876 426.227C90.0312 416.005 82.5119 404.857 75.1567 393.666L69.1576 384.517C69.171 384.487 69.1821 384.457 69.1921 384.427L69.2476 384.237C69.2636 384.143 69.2788 384.052 69.2933 383.963L69.4386 383.026C69.4725 382.954 69.5155 382.863 69.5663 382.753L69.8076 382.207C71.6466 378.677 69.3576 374.617 65.3576 374.446C64.0719 374.446 63.8943 374.407 64.8177 374.321L65.1976 374.287C63.8276 373.487 62.3476 373.087 60.7476 373.087C58.8776 373.087 57.0976 373.727 55.3076 374.167C52.6676 374.817 50.3166 375.276 47.5976 375.267C42.0176 375.247 36.6376 373.637 31.9276 370.667C21.0476 363.807 17.9076 349.097 19.6676 337.057C20.1676 333.647 20.9876 330.427 22.1576 327.427C23.6076 328.657 25.2276 329.707 27.0376 330.557C27.3076 330.687 27.5276 330.317 27.2776 330.147C25.5076 329.007 23.9876 327.647 22.6886 326.127C25.9476 318.507 31.4576 312.337 39.2876 308.007C44.2276 305.276 49.8076 303.977 55.2976 304.167C55.3166 304.327 55.3476 304.487 55.3776 304.647C55.9783 307.776 57.4624 309.353 59.6223 311.246L60.3966 311.917C63.3476 314.437 67.1276 314.207 69.5076 311.837L69.5666 311.917C70.3276 311.167 70.9776 310.467 71.5376 309.776C72.6466 310.607 73.6976 311.537 74.6886 312.567C75.0576 312.946 75.6776 312.457 75.4276 311.997C74.6466 310.587 73.7676 309.257 72.7876 308.026C74.0576 305.907 74.5476 303.667 74.5576 300.387C74.5642 297.003 74.4699 293.608 74.3758 290.218C74.3414 288.98 74.307 287.743 74.2776 286.507C74.0666 277.577 73.6076 268.647 73.2576 259.717C73.1717 257.481 72.9894 255.167 72.8046 252.821C72.3654 247.245 71.9123 241.493 72.7076 236.207C73.3663 231.834 76.0088 230.809 79.648 229.747L84.3783 228.38C95.5003 225.123 106.766 221.046 109.178 207.897C110.675 199.71 108.189 192.058 105.694 184.378C103.907 178.879 102.116 173.364 101.778 167.627C101.058 155.577 104.758 143.307 111.608 133.337C118.248 135.057 124.858 136.887 131.608 138.237C140.948 140.117 150.317 141.797 159.718 143.317C178.189 146.307 196.718 148.696 215.388 150.087C252.808 152.867 290.508 151.467 327.628 145.877C332.908 145.087 338.168 144.157 343.388 143.007C343.358 143.897 343.317 144.797 343.268 145.696C342.978 150.717 342.838 155.707 342.828 160.727C342.658 162.037 342.698 163.457 342.939 165.007L343.218 166.817C343.418 168.077 343.918 169.227 344.658 170.237C346.439 198.037 350.189 225.687 353.758 253.327L354.608 259.939C358.846 293 362.863 326.098 366.238 359.257C366.538 362.197 366.894 365.184 367.254 368.201C368.86 381.673 370.537 395.733 367.588 408.797C364.668 421.767 356.388 431.847 346.078 439.907C321.848 458.877 291.468 471.398 261.888 479.077C246.048 483.187 228.918 487.287 212.468 487.097C206.578 487.026 200.328 486.317 194.939 483.776C190.335 481.617 187.444 477.727 184.805 473.541L184.298 472.727C182.098 469.177 175.678 469.377 174.788 473.967C172.138 487.557 184.439 496.017 196.168 499.297C209.517 503.032 223.421 501.296 236.916 499.236L239.248 498.877C274.208 493.457 307.478 481.776 339.088 466.087C353.078 459.147 366.088 449.797 375.628 437.317C386.258 423.397 389.548 406.927 388.618 389.677C387.578 370.667 384.578 351.607 382.178 332.737L381.43 326.903C379.178 309.4 376.826 291.908 374.198 274.457C369.168 241.026 363.718 207.397 354.698 174.776C354.897 174.757 355.098 174.737 355.298 174.707C360.998 173.847 364.358 169.497 364.848 163.887L365.768 153.357L366.267 153.389C382.813 154.407 404.315 152.364 411.948 135.227C414.608 129.257 415.278 122.627 414.038 116.637C425.078 113.776 435.328 107.807 443.228 99.5574C447.328 95.2764 447.038 89.0874 443.228 84.7474C440.968 82.1574 438.558 79.8374 436.018 77.7574C443.228 75.1964 449.988 70.3974 453.748 63.7074C458.588 55.0974 456.689 44.5574 449.918 37.5874C444.1 31.5899 435.848 28.6654 428.193 25.719L425.475 24.6686C394.464 12.7839 361.878 5.46756 328.858 2.05735ZM54.9381 328.377C45.4381 327.567 37.7381 330.787 30.7671 336.937C30.0781 337.537 30.8371 338.477 31.5971 338.347C38.5071 337.127 46.6771 338.497 53.2781 340.627C60.6271 343.007 64.5781 348.007 70.4981 352.437C76.9981 357.297 86.0281 347.807 81.5971 341.337C75.9881 333.147 64.4881 329.196 54.9381 328.377Z" transform="translate(37.99998 0.0003450957)" fill="#000000" fill-rule="evenodd" stroke="none"></path></g></g><g transform="translate(159 186)"><g><path d="M140.63 0.473197L139.193 0.179116C137.503 -0.15929 135.804 -0.0161244 134.311 0.591153C132.847 1.18684 131.572 2.2242 130.68 3.72083C129.495 5.71373 129.337 7.38618 129.887 9.59525C130.311 11.3022 131.242 12.5864 132.46 13.5139C133.744 14.4911 135.37 15.0612 137.06 15.2595C144.854 16.175 152.53 17.8896 159.992 20.3235C163.488 21.4643 166.788 23.0096 170.058 24.6132L172.877 26.002C175.477 27.2735 178.163 28.499 181.557 29.3885C181.824 29.4584 182.087 29.5243 182.349 29.5865C183.29 29.2909 183.45 28.9329 183.649 28.6733L183.73 28.5721C183.972 28.2679 184.271 27.8025 183.988 25.6306C176.583 10.2711 156.267 3.74181 140.63 0.473197ZM43.5878 4.83023L45.4652 4.50163C51.273 3.49719 58.4944 2.53203 62.6028 7.20123C64.7819 9.67723 65.5318 14.2792 62.6028 16.6492C58.7671 19.7539 54.6298 19.6513 50.2182 19.5419C48.7043 19.5044 47.1582 19.466 45.5808 19.5562C40.4928 19.8482 35.6028 20.6902 30.7018 22.0912C19.9498 25.1642 11.1888 30.7742 2.00585 36.9342C0.800849 37.7422 -0.429151 36.2012 0.145849 35.0742C5.44685 24.6912 15.7198 16.1622 26.0098 10.9632C31.5019 8.18823 37.5118 5.88623 43.5878 4.83023ZM29.9632 50.1461C30.7976 39.7899 46.5702 37.4381 48.1392 47.6861C49.5442 56.8661 47.8902 65.2991 43.7552 73.5641C39.8042 81.4601 29.8737 77.7763 29.1227 70.5863C28.3809 63.4843 28.9069 59.2482 29.4428 54.933C29.6341 53.3921 29.8267 51.8412 29.9632 50.1461ZM159.205 41.8262C155.401 40.7152 152.226 42.6812 150.027 45.5612C149.773 45.8932 149.566 46.2222 149.38 46.5482C142.515 52.8562 145.101 65.6452 150.501 72.0492C153.814 75.9762 161.145 74.8452 163.413 70.3852C167.587 62.1722 171.09 45.2992 159.205 41.8262ZM128.748 119.039C136.872 107.66 125.366 96.9569 117.814 92.3669C115.836 90.9469 117.406 86.2431 121.634 86.9701C160.031 93.5671 140.136 159.708 91.112 123.413C85.2754 118.704 92.3434 108.334 98.6342 112.366C98.9532 112.611 99.2876 112.869 99.6364 113.139C106.704 118.603 119.636 128.601 128.748 119.039ZM93.5865 188.926C86.8642 186.184 80.8663 181.61 76.4812 175.766C74.9566 173.735 74.5614 171.589 74.8812 169.627C75.2408 167.421 76.546 165.422 78.326 164.08C80.1115 162.735 82.345 162.072 84.5043 162.41C86.3806 162.704 88.2484 163.731 89.7265 165.862L90.0354 166.288C92.6424 169.815 96.0396 172.708 99.9104 174.574C103.641 176.372 107.814 177.211 112.132 176.723C120.356 175.794 126.024 171.346 132.049 165.306C132.796 164.544 133.543 163.757 134.294 162.958C134.768 162.234 135.426 161.768 136.157 161.524C136.968 161.253 137.886 161.268 138.726 161.562C139.537 161.845 140.262 162.381 140.747 163.094C141.209 163.772 141.471 164.61 141.386 165.574C140.835 171.833 137.562 177.419 132.914 181.805C127.752 186.677 120.909 190.047 114.466 191.229C107.368 192.531 100.136 191.598 93.5865 188.926Z" transform="translate(53.00005 52.00027)" fill="#000000" fill-rule="evenodd" stroke="none"></path></g></g><g transform="translate(123 338)"><g><path d="M268.388 67.08C270.922 71.4266 273.06 76.0406 274.758 80.8047C275.556 83.0421 281.542 107.261 277.755 121.138C274.111 134.497 267.519 147.166 259.18 158.287C251.52 168.499 241.863 176.987 229.899 181.682C214.289 187.81 195.674 186.087 179.386 184.505C159.043 182.523 139.049 177.998 119.705 171.451C110.028 168.188 100.531 164.424 91.173 160.35C81.9752 156.356 72.1982 152.421 63.5797 147.246C56.1695 142.791 49.8479 135.783 43.796 129.708C34.2586 120.137 24.931 110.156 16.692 99.4255C9.0022 89.4149 3.24985 80.144 1.30244 67.4804C-1.70965 47.8457 1.09105 27.2169 3.76515 7.52062C3.98141 5.92774 4.19685 4.34095 4.40831 2.76129C4.4882 2.10059 5.52682 1.75021 5.74653 2.43094C5.72656 2.06054 5.70658 1.69115 5.68661 1.32075C5.6167 -0.261938 7.92364 -0.471162 8.35307 0.959366C13.6061 18.3389 22.1847 34.1548 34.5183 47.5191C51.5017 65.9128 73.2059 78.6794 94.2819 91.9486C94.989 91.2819 95.8478 90.8083 96.7576 90.6282C99.8046 76.9215 109.88 64.1789 119.845 55.5076C149.016 30.1415 195.754 19.2389 231.876 34.7054C247.146 41.2524 260.009 52.7056 268.388 67.08ZM163.836 57.1894C143.492 62.2859 125.821 76.2258 117.725 95.193C117.113 99.3325 117.163 103.521 118.04 107.674C135.307 119.809 156.513 126.186 177.735 123.714C184.346 115.511 191.665 101.523 202.782 99.9091C211.011 98.7154 216.836 104.137 222.687 109.584C225.693 112.382 228.706 115.187 232.056 117.104C232.606 117.419 233.206 117.725 233.827 118.023C240.161 117.498 246.515 116.018 251.84 112.401C257.296 108.697 259.362 103.683 260.334 97.7918C260.056 96.6676 259.757 95.5494 259.439 94.4392C257.202 86.6309 254.017 79.0127 249.333 72.3566C245.398 66.7396 240.165 61.9545 233.744 59.4228C226.224 56.4597 217.665 55.828 209.686 55.0572C194.456 53.5756 178.777 53.4564 163.836 57.1894Z" fill="#000000" fill-rule="evenodd" stroke="none"></path></g></g><g transform="translate(47 241)"></g></g></g></svg>